<svg width="161" height="48" viewBox="0 0 161 48" fill="none" xmlns="http://www.w3.org/2000/svg">
<path fill-rule="evenodd" clip-rule="evenodd" d="M99.7624 37.5409C90.4788 44.3393 76.9858 48 65.3719 48C49.0976 48 34.4394 42.0233 23.3517 32.0871C22.4873 31.3027 23.2766 30.2568 24.2914 30.8545C36.2434 37.765 51.052 41.9486 66.3116 41.9486C76.6099 41.9486 87.9606 39.8194 98.3717 35.449C99.9879 34.7019 101.303 36.3829 99.7624 37.5409Z" fill="white"/>
<path fill-rule="evenodd" clip-rule="evenodd" d="M103.634 33.1331C102.431 31.6389 95.7784 32.4234 92.7715 32.7596C91.8695 32.8716 91.7192 32.0872 92.546 31.5269C97.8456 27.7915 106.565 28.8747 107.618 30.1448C108.632 31.4148 107.355 40.081 102.356 44.2273C101.604 44.8623 100.852 44.5261 101.191 43.667C102.281 40.8654 104.799 34.6273 103.634 33.1331Z" fill="white"/>
<path fill-rule="evenodd" clip-rule="evenodd" d="M92.9595 5.26692V1.64358C92.9595 1.15797 93.3353 0.747082 93.8239 0.747082H110.136C110.662 0.747082 111.076 1.12062 111.076 1.64358V4.74397C111.076 5.26693 110.625 5.9393 109.835 7.02257L101.416 18.9759C104.536 18.9012 107.843 19.3494 110.7 20.9556C111.339 21.3292 111.527 21.8521 111.564 22.3751V26.2226C111.564 26.7455 110.963 27.3806 110.361 27.0444C105.363 24.4296 98.71 24.1681 93.1474 27.0817C92.5836 27.3806 91.9823 26.7829 91.9823 26.2599V22.5992C91.9823 22.0016 91.9823 20.993 92.5836 20.0965L102.356 6.16343H93.8615C93.4105 6.20078 92.9595 5.82724 92.9595 5.26692ZM33.5749 27.8288H28.6137C28.1627 27.7915 27.7868 27.4553 27.7116 27.007V1.75564C27.7116 1.23268 28.1251 0.85914 28.6513 0.85914H33.2743C33.7629 0.896494 34.1387 1.23268 34.1763 1.71829V5.00545H34.2515C35.4542 1.83035 37.7093 0.336185 40.7537 0.336185C43.8357 0.336185 45.7901 1.83035 47.1808 5.00545C48.3835 1.83035 51.0896 0.336185 54.0213 0.336185C56.0884 0.336185 58.3811 1.19533 59.7718 3.10039C61.3504 5.22957 61.0121 8.32996 61.0121 11.0195V26.9697C61.0121 27.4926 60.5611 27.9035 60.0725 27.8662H55.1112C54.6226 27.8288 54.2468 27.4553 54.2092 26.9697V13.5969C54.2092 12.5136 54.3219 9.86148 54.0588 8.85292C53.683 7.17199 52.593 6.68638 51.1648 6.68638C49.9621 6.68638 48.7218 7.47082 48.1956 8.74086C47.707 10.0109 47.7445 12.1401 47.7445 13.5969V26.9697C47.7445 27.4926 47.2935 27.9035 46.8049 27.8662H41.8437C41.3551 27.8288 40.9416 27.4553 40.9416 26.9697V13.5969C40.9416 10.7953 41.3926 6.64903 37.8972 6.64903C34.3266 6.64903 34.477 10.6833 34.477 13.5969V26.9697C34.5521 27.4179 34.1011 27.8288 33.5749 27.8288ZM125.132 0.298828C132.499 0.298828 136.446 6.57432 136.446 14.5307C136.446 22.2257 132.048 28.3518 125.132 28.3518C117.916 28.3518 113.97 22.0763 113.97 14.2693C113.97 6.38755 117.954 0.298828 125.132 0.298828ZM125.17 5.4537C121.524 5.4537 121.299 10.3844 121.299 13.4848C121.299 16.5852 121.261 23.1595 125.132 23.1595C128.966 23.1595 129.154 17.8553 129.154 14.6054C129.154 12.4763 129.079 9.93619 128.402 7.91907C127.838 6.12607 126.749 5.4537 125.17 5.4537ZM145.992 27.8288H141.068C140.58 27.7915 140.204 27.4179 140.166 26.9323V1.68093C140.204 1.19533 140.617 0.85914 141.106 0.85914H145.691C146.105 0.85914 146.481 1.15798 146.593 1.56887V5.41634H146.669C148.059 1.97977 150.014 0.298828 153.434 0.298828C155.652 0.298828 157.831 1.08326 159.222 3.28716C160.5 5.30428 160.5 8.7035 160.5 11.1689V27.0817C160.425 27.53 160.011 27.8662 159.56 27.8662H154.599C154.148 27.8288 153.772 27.4926 153.735 27.0817V13.3728C153.735 10.6086 154.073 6.57432 150.615 6.57432C149.412 6.57432 148.285 7.39611 147.759 8.59144C147.045 10.123 146.969 11.6545 146.969 13.3728V26.9697C146.932 27.4179 146.518 27.8288 145.992 27.8288ZM79.9926 15.7634C79.9926 17.6685 80.0302 19.2747 79.053 20.993C78.2637 22.3751 77.0234 23.2342 75.6327 23.2342C73.7159 23.2342 72.6259 21.7774 72.6259 19.6856C72.6259 15.502 76.422 14.7175 79.9926 14.7175V15.7634ZM84.9914 27.7541C84.6532 28.0156 84.2021 28.0903 83.8263 27.8662C82.1725 26.5214 81.8719 25.8864 80.9698 24.579C78.2637 27.3432 76.3093 28.165 72.8138 28.165C68.6419 28.165 65.4096 25.6249 65.4096 20.5074C65.4096 16.5105 67.5895 13.7837 70.7091 12.4763C73.4152 11.2809 77.1361 11.0942 80.0302 10.758V10.123C80.0302 8.96498 80.1054 7.58288 79.4288 6.53697C78.8275 5.64047 77.6623 5.26692 76.6475 5.26692C74.7683 5.26692 73.0769 6.23813 72.6635 8.2179C72.5883 8.66615 72.2501 9.1144 71.799 9.1144L66.9881 8.59144C66.5747 8.51673 66.1237 8.18055 66.2364 7.54553C67.3264 1.75564 72.5883 0 77.3241 0C79.7295 0 82.8867 0.635016 84.8035 2.46537C87.209 4.70661 86.9834 7.69494 86.9834 10.9447V18.6397C86.9834 20.9556 87.9607 21.9642 88.8627 23.1969C89.1634 23.6451 89.2385 24.1681 88.8251 24.5043C87.5096 25.5876 86.2693 26.6708 84.9914 27.7541ZM15.083 15.7634C15.083 17.6685 15.1206 19.2747 14.1434 20.993C13.3541 22.3751 12.1138 23.2342 10.7232 23.2342C8.80632 23.2342 7.71635 21.7774 7.71635 19.6856C7.71635 15.502 11.5124 14.7175 15.083 14.7175V15.7634ZM20.0819 27.7541C19.7436 28.0156 19.2926 28.0903 18.9167 27.8662C17.263 26.5214 16.9623 25.8864 16.0603 24.579C13.3541 27.3432 11.4373 28.165 7.90427 28.165C3.73232 28.165 0.5 25.6249 0.5 20.5074C0.5 16.5105 2.67994 13.7837 5.79951 12.4763C8.50564 11.2809 12.2266 11.0942 15.1206 10.758V10.123C15.1206 8.96498 15.1958 7.58288 14.5193 6.53697C13.9179 5.64047 12.7528 5.26692 11.738 5.26692C9.8587 5.26692 8.16737 6.23813 7.75393 8.2179C7.67876 8.66615 7.3405 9.1144 6.88948 9.1144L2.07858 8.59144C1.66514 8.51673 1.21412 8.18055 1.32687 7.54553C2.41684 1.75564 7.67876 0 12.4145 0C14.8199 0 17.9771 0.635016 19.8564 2.46537C22.2618 4.70661 22.0363 7.69494 22.0363 10.9447V18.6397C22.0363 20.9556 23.0135 21.9642 23.9156 23.1969C24.2538 23.6451 24.2914 24.1681 23.9156 24.5043C22.6001 25.5876 21.3222 26.6708 20.0819 27.7541Z" fill="white"/>
</svg>
