<svg width="219" height="38" viewBox="0 0 219 38" fill="none" xmlns="http://www.w3.org/2000/svg">
<path d="M192.249 37.3703H199.503V25.9225L209.624 37.3703H218.5L206.717 24.177L216.781 12.7376H208.704L199.5 23.2822V0.00276031L192.247 0.930735V37.3703H192.249ZM175.52 12.1023C167.468 12.1023 161.874 17.3857 161.874 25.047C161.874 32.7083 167.465 37.9917 175.52 37.9917C183.572 37.9917 189.166 32.7083 189.166 25.047C189.166 17.3857 183.572 12.1023 175.52 12.1023ZM175.52 31.9599C171.789 31.9599 169.232 29.1456 169.232 25.047C169.232 20.9485 171.789 18.1342 175.52 18.1342C179.252 18.1342 181.808 20.9485 181.808 25.047C181.808 29.1456 179.252 31.9599 175.52 31.9599ZM146.042 12.1023C137.99 12.1023 132.396 17.3857 132.396 25.047C132.396 32.7083 137.987 37.9917 146.042 37.9917C154.094 37.9917 159.688 32.7083 159.688 25.047C159.688 17.3857 154.094 12.1023 146.042 12.1023ZM146.042 31.9599C142.31 31.9599 139.754 29.1456 139.754 25.047C139.754 20.9485 142.31 18.1342 146.042 18.1342C149.773 18.1342 152.33 20.9485 152.33 25.047C152.33 29.1456 149.771 31.9599 146.042 31.9599ZM118.279 12.1023C114.925 12.1023 112.144 13.3893 110.403 15.7424V0L103.141 0.919689V37.362H109.579L109.707 33.559C111.425 36.3954 114.5 37.9945 118.279 37.9945C125.165 37.9945 130.207 32.5399 130.207 25.0498C130.207 17.5597 125.19 12.1023 118.279 12.1023ZM116.561 31.9599C112.829 31.9599 110.273 29.1456 110.273 25.047C110.273 20.9485 112.829 18.1342 116.561 18.1342C120.292 18.1342 122.849 20.9485 122.849 25.047C122.849 29.1456 120.292 31.9599 116.561 31.9599ZM88.6003 32.2803C84.7499 32.2803 81.9867 30.5348 81.0439 27.5271H98.9143C99.0898 26.6075 99.2087 25.5165 99.2087 24.7846C99.2087 16.8582 94.6618 12.1051 87.0262 12.1051C79.3169 12.1051 73.9802 17.3885 73.9802 25.0498C73.9802 32.8105 79.5717 37.9945 87.8727 37.9945C92.1704 37.9945 96.3492 36.5915 98.9624 34.2605L96.3492 29.7725C93.8182 31.4766 91.3324 32.2803 88.6003 32.2803ZM86.9781 17.6067C90.333 17.6067 92.4733 19.5952 92.4733 22.6718V22.6967H80.8882C81.5875 19.4295 83.7505 17.6067 86.9781 17.6067ZM62.6215 38C66.3756 38 70.0505 36.597 72.6382 34.1666L69.8013 29.5129C67.7884 31.0402 65.5036 31.866 63.3378 31.866C59.3119 31.866 56.6279 29.1235 56.6279 25.0553C56.6279 20.9871 59.3119 18.2446 63.3378 18.2446C65.3281 18.2446 67.4911 18.9461 69.2493 20.1862L72.1342 15.4331C69.8013 13.3755 66.1916 12.1134 62.6102 12.1134C54.7339 12.1134 49.165 17.4741 49.165 25.0581C49.1763 32.6144 54.7452 38 62.6215 38ZM39.5588 12.7348L39.4314 16.5682C37.7129 13.707 34.6382 12.1106 30.8586 12.1106C23.9477 12.1106 18.9309 17.5652 18.9309 25.0553C18.9309 32.5454 23.9789 38 30.8586 38C34.6382 38 37.7214 36.4037 39.4314 33.5645L39.5588 37.3675H45.9969V12.732H39.5588V12.7348ZM32.5743 31.9599C28.8428 31.9599 26.2863 29.1456 26.2863 25.047C26.2863 20.9485 28.8428 18.1342 32.5743 18.1342C36.3058 18.1342 38.8623 20.9485 38.8623 25.047C38.8623 29.1483 36.2973 31.9599 32.5743 31.9599ZM18.3873 12.7817H11.8615V10.6772C11.8615 7.52875 13.1242 6.32183 16.3998 6.32183C17.4134 6.32183 18.2373 6.34392 18.7072 6.39087V0.991495C17.8126 0.748455 15.6326 0.508175 14.3699 0.508175C7.69966 0.508175 4.62218 3.57933 4.62218 10.2105V12.7735H0.5V18.728H4.62218V37.362H11.8671V18.7335H17.269L18.3873 12.7817Z" fill="white"/>
</svg>
