<svg width="169" height="55" viewBox="0 0 169 55" fill="none" xmlns="http://www.w3.org/2000/svg">
<path d="M41.779 19.4492H22.1623V25.2739H36.0784C35.4078 33.4084 28.6006 36.8898 22.1958 36.8898C13.9802 36.8898 6.83773 30.4626 6.83773 21.4242C6.83773 12.6202 13.6449 5.85819 22.1958 5.85819C28.8018 5.85819 32.6916 10.0426 32.6916 10.0426L36.7826 5.82471C36.7826 5.82471 31.5515 0 22.0281 0C9.88922 0 0.5 10.2435 0.5 21.2903C0.5 32.1363 9.3527 42.6811 22.3635 42.6811C33.7982 42.6811 42.1814 34.8478 42.1814 23.2654C42.1479 20.8551 41.779 19.4492 41.779 19.4492ZM57.8749 15.2313C49.8269 15.2313 44.0593 21.5247 44.0593 28.8223C44.0593 36.2538 49.6593 42.6476 57.9755 42.6476C65.4868 42.6476 71.6569 36.8898 71.6569 28.9897C71.6569 19.9178 64.4808 15.2313 57.8749 15.2313ZM57.9419 20.6208C61.8988 20.6208 65.6545 23.801 65.6545 28.9562C65.6545 33.9775 61.9323 37.2915 57.9419 37.2915C53.5491 37.2915 50.0952 33.7766 50.0952 28.9227C50.0617 24.1692 53.482 20.6208 57.9419 20.6208ZM87.9204 15.2313C79.8725 15.2313 74.1048 21.5247 74.1048 28.8223C74.1048 36.2538 79.7048 42.6476 88.021 42.6476C95.5323 42.6476 101.702 36.8898 101.702 28.9897C101.702 19.9178 94.5264 15.2313 87.9204 15.2313ZM87.9874 20.6208C91.9443 20.6208 95.7 23.801 95.7 28.9562C95.7 33.9775 91.9778 37.2915 87.9874 37.2915C83.5946 37.2915 80.1407 33.7766 80.1407 28.9227C80.1072 24.1692 83.5275 20.6208 87.9874 20.6208ZM117.362 15.2648C109.985 15.2648 104.184 21.7255 104.184 28.9562C104.184 37.2246 110.924 42.6811 117.262 42.6811C121.185 42.6811 123.264 41.1412 124.807 39.3335V42.045C124.807 46.7651 121.923 49.6105 117.597 49.6105C113.405 49.6105 111.293 46.4973 110.555 44.7231L105.29 46.9325C107.168 50.8825 110.924 55 117.664 55C125.008 55 130.608 50.3804 130.608 40.706V16.0682H124.84V18.378C122.996 16.5033 120.581 15.2648 117.362 15.2648ZM117.899 20.6208C121.52 20.6208 125.243 23.7006 125.243 28.9897C125.243 34.3457 121.52 37.2915 117.832 37.2915C113.908 37.2915 110.22 34.1114 110.22 29.0231C110.22 23.7675 114.043 20.6208 117.899 20.6208ZM156.16 15.2313C149.185 15.2313 143.35 20.7547 143.35 28.9227C143.35 37.5593 149.856 42.6811 156.831 42.6811C162.632 42.6811 166.22 39.5009 168.332 36.6555L163.571 33.5088C162.33 35.4169 160.284 37.2915 156.831 37.2915C152.974 37.2915 151.197 35.1826 150.09 33.1406L168.5 25.5082L167.528 23.2654C165.817 18.8801 161.659 15.2313 156.16 15.2313ZM156.395 20.4869C158.91 20.4869 160.72 21.8259 161.492 23.4327L149.185 28.5545C148.649 24.6044 152.404 20.4869 156.395 20.4869Z" fill="white"/>
<path d="M134.565 41.8777H140.601V1.43946H134.565V41.8777Z" fill="white"/>
</svg>
