<svg width="211" height="39" viewBox="0 0 211 39" fill="none" xmlns="http://www.w3.org/2000/svg">
<path fill-rule="evenodd" clip-rule="evenodd" d="M147.519 7.995C144.34 7.995 141.956 9.165 140.764 11.115L140.168 12.285V8.58H135.002V31.2H140.565V17.745C140.565 14.625 142.353 12.675 145.532 12.675C148.512 12.675 150.102 14.43 150.102 17.55V31.2H155.665V16.575C155.466 11.31 152.486 7.995 147.519 7.995ZM120.697 7.995C114.141 7.995 110.167 12.09 110.167 18.525V21.645C110.167 27.885 114.339 31.59 120.896 31.59C125.267 31.59 128.446 30.03 130.234 26.715L126.856 24.765C125.465 26.715 123.081 27.885 120.896 27.885C117.518 27.885 115.531 25.935 115.531 22.425V21.45H131.028V17.745C130.83 11.895 126.856 7.995 120.697 7.995ZM125.863 18.135H115.531V17.55C115.531 13.845 117.32 11.7 120.697 11.7C123.876 11.7 125.863 13.65 125.863 17.16V18.135ZM210.5 4.875V0.584999H191.427V4.875H198.182V26.91H191.427V31.2H210.5V26.91H203.745V4.875H210.5ZM65.2656 0C56.7224 0 51.358 5.265 51.358 13.65V18.135C51.358 26.52 56.7224 31.785 65.2656 31.785C73.8088 31.785 79.1731 26.52 79.1731 18.135V13.65C79.1731 5.265 73.8088 0 65.2656 0ZM73.4114 18.525C73.4114 24.18 70.4312 27.3 65.2656 27.3C60.0999 27.3 57.1197 24.18 57.1197 18.525V13.26C57.1197 7.605 60.0999 4.485 65.2656 4.485C70.4312 4.485 73.4114 7.605 73.4114 13.26V18.525ZM96.6569 8.19C93.6767 8.19 91.2925 9.36 89.9018 11.31L89.3057 12.09V8.58H84.1401V39H89.7031V28.08L90.2991 28.86C91.4912 30.615 94.0741 31.785 96.8556 31.785C101.624 31.785 106.392 28.665 106.392 21.84V17.94C106.193 13.065 103.213 7.995 96.6569 8.19ZM100.63 21.645C100.63 25.35 98.445 27.495 95.0674 27.495C91.8886 27.495 89.5044 25.155 89.5044 21.645V18.33C89.5044 14.82 91.6899 12.48 95.0674 12.48C98.445 12.48 100.63 14.82 100.63 18.33V21.645ZM170.764 0.584999L159.638 31.2H165.201L167.387 24.57H180.301L182.486 31.005H188.049L176.923 0.390001L170.764 0.584999ZM168.777 20.28L173.744 4.875L178.711 20.28H168.777ZM37.0531 15.99C38.0465 13.26 37.6492 10.335 36.2584 7.995C34.0729 4.29 29.702 2.34 25.5298 3.315C23.1456 0.780002 19.5694 -0.390003 15.9931 0.194997C12.4169 0.974997 9.63542 3.51 8.44334 6.825C5.66183 7.41 3.27769 9.165 1.88693 11.505C-0.298538 15.21 0.0988216 19.89 3.07901 23.01C2.08561 25.74 2.48297 28.665 3.87372 31.005C6.05919 34.71 10.4301 36.66 14.6024 35.685C16.5892 37.83 19.172 39 22.1522 39C26.5231 39 30.298 36.27 31.6888 32.175C34.4703 31.59 36.8545 29.835 38.2452 27.495C40.4307 23.79 40.0333 19.11 37.0531 15.99ZM22.1522 36.465C20.3641 36.465 18.7747 35.88 17.3839 34.71L17.5826 34.515L25.5298 30.03C25.9271 29.835 26.1258 29.445 26.1258 28.86V17.94L29.5033 19.89V29.055C29.5033 33.15 26.3245 36.465 22.1522 36.465ZM6.05919 29.64C5.26448 28.08 4.86712 26.52 5.26448 24.765L5.46316 24.96L13.4103 29.445C13.8077 29.64 14.205 29.64 14.8011 29.445L24.5364 23.985V27.69C24.5364 27.69 24.5364 27.69 24.5364 27.885L16.5892 32.37C12.8143 34.32 8.24467 33.15 6.05919 29.64ZM4.0724 12.87C4.86712 11.31 6.25787 10.335 8.04599 9.75V18.915C8.04599 19.305 8.24466 19.695 8.64202 20.085L18.1786 25.545L14.8011 27.495C14.8011 27.495 14.8011 27.495 14.6024 27.495L6.65523 23.01C3.27769 20.67 2.08561 16.185 4.0724 12.87ZM31.4901 19.11L21.9535 13.65L25.3311 11.7C25.3311 11.7 25.3311 11.7 25.5298 11.7L33.4769 16.185C36.0597 17.55 37.4505 20.28 37.2518 23.205C37.0531 25.935 35.0663 28.47 32.4835 29.445V20.28C32.2848 19.695 31.8875 19.305 31.4901 19.11ZM34.8677 14.235L34.669 14.04L26.7218 9.555C26.3245 9.36 25.7284 9.36 25.3311 9.555L15.7945 15.015V11.31C15.7945 11.31 15.7945 11.31 15.7945 11.115L23.7416 6.63C26.3245 5.265 29.3047 5.265 31.6888 7.02C34.073 8.58 35.265 11.31 34.8677 14.235ZM14.0064 20.865L10.6288 18.915V9.75C10.6288 6.825 12.2182 4.29 14.9998 3.12C17.5826 1.95 20.7614 2.34 22.9469 4.095L22.7482 4.29L14.8011 8.775C14.4037 8.97 14.205 9.36 14.205 9.945L14.0064 20.865ZM15.7945 16.965L20.1654 14.625L24.5364 16.965V21.84L20.1654 24.18L15.7945 21.84V16.965Z" fill="white"/>
</svg>
