<svg width="242" height="30" viewBox="0 0 242 30" fill="none" xmlns="http://www.w3.org/2000/svg">
<path fill-rule="evenodd" clip-rule="evenodd" d="M206.374 11.8811V29.9009H212.401V17.9207H234.537V29.9009H240.565V11.8811H206.374Z" fill="white"/>
<path fill-rule="evenodd" clip-rule="evenodd" d="M211.778 6.03967H235.161C238.382 5.44561 240.773 2.67334 241.5 0.0990899H205.438C206.062 2.67334 208.556 5.44561 211.778 6.03967Z" fill="white"/>
<path fill-rule="evenodd" clip-rule="evenodd" d="M187.979 29.901C190.993 28.7129 192.656 26.5347 193.279 24.0594H166.051V0.0990899H159.92V29.901H187.979Z" fill="white"/>
<path fill-rule="evenodd" clip-rule="evenodd" d="M114.505 5.94066H136.121C139.343 5.04957 142.149 2.67334 142.772 0.0990899H108.477V17.7228H136.537V23.9604H114.505C111.075 24.8515 108.165 27.1287 106.71 30H142.564V11.8812H114.505V5.94066Z" fill="white"/>
<path fill-rule="evenodd" clip-rule="evenodd" d="M61.2956 6.03967H84.6785C87.9001 5.44561 90.2904 2.67334 91.0179 0.0990899H54.9562C55.5797 2.67334 58.0739 5.44561 61.2956 6.03967Z" fill="white"/>
<path fill-rule="evenodd" clip-rule="evenodd" d="M61.2956 17.8217H84.6785C87.9001 17.2276 90.2904 14.4554 91.0179 11.8811H54.9562C55.5797 14.4554 58.0739 17.2276 61.2956 17.8217Z" fill="white"/>
<path fill-rule="evenodd" clip-rule="evenodd" d="M61.2956 29.9009H84.6785C87.9001 29.3068 90.2904 26.5346 91.0179 23.9603H54.9562C55.5797 26.6336 58.0739 29.3068 61.2956 29.9009Z" fill="white"/>
<path fill-rule="evenodd" clip-rule="evenodd" d="M0.5 0.0990157C1.22747 2.67327 3.61773 5.34653 6.83938 6.0396H16.7122L17.2318 6.2376V29.9009H23.3633V6.2376L23.8829 6.0396H33.7557C37.0813 5.24752 39.3676 2.67327 40.0951 0.0990157V0L0.5 0.0990157Z" fill="white"/>
</svg>
